<?xml version="1.0" encoding="UTF-8" standalone="no"?>
<!-- Created with Inkscape (http://www.inkscape.org/) -->

<svg
   version="1.1"
   id="svg1"
   width="449"
   height="393"
   viewBox="0 0 449 393"
   sodipodi:docname="logonegativoD.png"
   xml:space="preserve"
   inkscape:export-filename="logonegativoD.png"
   inkscape:export-xdpi="96"
   inkscape:export-ydpi="96"
   inkscape:version="1.4.2 (ebf0e940d0, 2025-05-08)"
   xmlns:inkscape="http://www.inkscape.org/namespaces/inkscape"
   xmlns:sodipodi="http://sodipodi.sourceforge.net/DTD/sodipodi-0.dtd"
   xmlns="http://www.w3.org/2000/svg"
   xmlns:svg="http://www.w3.org/2000/svg"><defs
     id="defs1" /><sodipodi:namedview
     id="namedview1"
     pagecolor="#ffffff"
     bordercolor="#000000"
     borderopacity="0.25"
     inkscape:showpageshadow="2"
     inkscape:pageopacity="0.0"
     inkscape:pagecheckerboard="true"
     inkscape:deskcolor="#d1d1d1"
     inkscape:zoom="0.86301674"
     inkscape:cx="295.47515"
     inkscape:cy="356.30827"
     inkscape:window-width="1886"
     inkscape:window-height="976"
     inkscape:window-x="15"
     inkscape:window-y="65"
     inkscape:window-maximized="1"
     inkscape:current-layer="g1"><inkscape:page
       x="0"
       y="0"
       width="449"
       height="393"
       id="page2"
       margin="0"
       bleed="0" /></sodipodi:namedview><g
     inkscape:groupmode="layer"
     inkscape:label="Image"
     id="g1"><g
       id="g81"
       transform="translate(-6.9523565,17.380891)"
       style="fill:#ffffff;fill-opacity:1"><path
         style="fill:#ffffff;fill-opacity:1"
         d="m 242.44797,-6.7793587 v -2.51385 l 32.25,0.26385 32.25,0.26385 0.31955,2.25 0.31955,2.2500005 h -32.56955 -32.56955 z"
         id="path81" /><path
         style="fill:#ffffff;fill-opacity:1"
         d="M 205.44797,7.7344917 V 4.7344908 h 68.83334 c 37.85833,0 69.0689,0.23558 69.35683,0.52351 0.28793,0.28792 0.31047,1.6379209 0.0501,3.0000009 l -0.47341,2.4764903 H 274.3314 205.44798 Z"
         id="path80" /><path
         style="fill:#ffffff;fill-opacity:1"
         d="m 319.604,55.336098 c -2.9436,-8.24258 -23.15148,-25.899797 -37.30298,-32.594546 l -6.35305,-3.00548 12.93428,-7.9e-4 c 11.05473,-6.7e-4 13.55826,0.30128 17.2283,2.07792 4.3507,2.10613 8.73961,6.832899 11.67644,12.575286 1.93499,3.78348 3.91458,15.71523 3.47597,20.95094 l -0.31499,3.76001 z"
         id="path79" /><path
         style="fill:#ffffff;fill-opacity:1"
         d="m 227.44797,97.313458 c 0,-3.526363 3.71097,-18.64613 7.21769,-29.40742 3.565,-10.9401 3.56633,-19.76474 0.004,-26.74082 -3.42412,-6.70546 -9.76147,-13.989647 -15.28189,-17.565086 l -5.19648,-3.36564 19.09611,-0.27148 c 17.15229,-0.24384 19.7356,-0.0584 25.37833,1.82152 19.29819,6.429429 46.75156,26.128876 52.72144,37.830816 2.65645,5.20706 2.66952,13.1031 0.0456,27.538557 -1.09165,6.00568 -1.98482,11.293183 -1.98482,11.750003 0,0.45683 -18.45,0.83059 -41,0.83059 h -41 z"
         id="path78" /><path
         style="fill:#ffffff;fill-opacity:1"
         d="m 412.90316,99.661998 c -0.51033,-0.82574 0.68375,-9.722373 3.01017,-22.42751 1.68012,-9.17556 1.90105,-13.5 0.68968,-13.5 -0.46473,0 -3.5499,-1.74828 -6.85593,-3.88507 -5.74169,-3.71104 -6.04059,-4.10846 -6.67249,-8.87197 -0.88503,-6.67166 -6.83489,-15.75737 -13.54401,-20.682307 -2.86542,-2.10342 -8.66873,-5.334559 -12.89624,-7.180309 l -7.68637,-3.35592 27.25,-0.0122 27.25,-0.0122 v 6.54216 c 0,15.025806 5.44026,30.737866 13.70061,39.568846 l 4.34698,4.64728 -1.44777,7.87085 c -3.4409,18.70666 -3.8746,20.89214 -4.2236,21.28341 -0.68573,0.768802 -22.44635,0.783002 -22.92103,0.015 z"
         id="path77" /><path
         style="fill:#ffffff;fill-opacity:1"
         d="m 325.32955,99.984498 c -0.17731,-1.12295 -0.24718,-0.67652 2.62177,-16.75001 4.66886,-26.15758 2.58673,-48.58261 -5.438,-58.568296 -1.68594,-2.09793 -3.06535,-4.11902 -3.06535,-4.4913 0,-0.37229 5.7375,-0.45645 12.75,-0.18703 10.97255,0.42157 14.07438,0.9413 22.25,3.72816 14.39987,4.908549 27.98882,12.230026 33.36284,17.975286 4.4737,4.78275 4.90748,5.72509 6.12887,13.31456 0.72346,4.49539 5.15564,9.85886 10.07677,12.19409 l 3.55631,1.68758 -0.66873,5.17347 c -0.36781,2.84542 -1.40839,9.67348 -2.3124,15.173487 l -1.64366,10.000003 -6.5,0.63311 c -9.3389,0.909642 -70.97725,1.010942 -71.11842,0.11689 z"
         id="path76" /><path
         style="fill:#ffffff;fill-opacity:1"
         d="m 148.93358,99.711218 c -0.34783,-0.56281 -0.17246,-4.050313 0.38971,-7.750003 0.56218,-3.6997 1.32903,-10.626417 1.70411,-15.392707 l 0.68197,-8.66597 10.8693,-8.13136 10.8693,-8.13135 v -5.77117 c 0,-6.5301 -2.06657,-14.350407 -5.6755,-21.477166 l -2.45245,-4.843 14.81398,0.36604 c 14.29644,0.35325 15.02382,0.47498 20.82062,3.48455 8.88539,4.613089 17.89531,11.752766 22.15592,17.556866 5.21283,7.1013 5.65408,13.76571 1.74159,26.30431 -1.54016,4.93583 -3.94865,14.14923 -5.35222,20.474237 l -2.55194,11.500003 -7.5,0.6193 c -13.12743,1.083972 -59.82434,0.973942 -60.51439,-0.14258 z"
         id="path75" /><path
         style="fill:#ffffff;fill-opacity:1"
         d="m 97.051009,99.901198 c -0.32919,-0.53264 0.24813,-5.175543 1.28294,-10.317573 1.0348,-5.142027 2.173301,-11.005297 2.529991,-13.029477 0.59546,-3.37921 1.07546,-3.82092 5.86628,-5.39833 16.05068,-5.28481 27.66912,-20.14548 33.87333,-43.326007 l 2.19064,-8.184789 5.54425,0.29474 c 5.29453,0.28146 5.67346,0.4875 8.4131,4.57469 3.02558,4.513769 6.07018,12.275246 7.20032,18.355526 l 0.67572,3.63548 -11.0898,8.29632 c -10.45809,7.82372 -11.09187,8.49957 -11.12603,11.86451 -0.0479,4.72414 -3.57217,31.62555 -4.29667,32.79782 -0.77811,1.259012 -40.296141,1.679642 -41.064071,0.43709 z"
         id="path74" /><path
         style="fill:#ffffff;fill-opacity:1"
         d="m 210.85979,121.3653 c -0.28897,-0.75306 -0.38735,-3.79056 -0.21861,-6.75 l 0.30679,-5.3808 46.32057,-0.26003 46.32058,-0.26004 -0.70008,2.26004 c -0.38505,1.24301 -1.77439,4.39753 -3.08742,7.01003 l -2.38734,4.75 h -43.01454 c -35.48633,0 -43.10649,-0.23963 -43.53995,-1.3692 z"
         id="path73" /><path
         style="fill:#ffffff;fill-opacity:1"
         d="m 206.44797,144.7345 c 0,-3.90476 0.0833,-4 3.5,-4 3.41667,0 3.5,-0.0952 3.5,-4 v -4 h 38.63084 38.63085 l -0.56798,3.5 c -0.52464,3.23298 -0.37355,3.5 1.98045,3.5 2.40232,0 2.50817,0.21455 1.84635,3.74238 -0.38614,2.05831 -0.91278,4.08331 -1.17031,4.5 -0.25753,0.41669 -19.79167,0.75762 -43.40922,0.75762 h -42.94098 z"
         id="path72" /><path
         style="fill:#ffffff;fill-opacity:1"
         d="m 212.44797,323.47116 c 0,-0.19303 1.12441,-6.17524 2.49868,-13.29381 1.37427,-7.11857 3.4746,-18.00535 4.6674,-24.19285 l 2.16873,-11.25 3.0826,-0.13989 c 1.69542,-0.0769 4.7834,-0.23744 6.86216,-0.35667 2.07876,-0.11923 3.95381,0.0652 4.16679,0.40977 0.21298,0.3446 -1.73254,11.4176 -4.32337,24.60667 l -4.71061,23.98012 -7.20619,0.29381 c -3.9634,0.16159 -7.20619,0.13588 -7.20619,-0.0571 z"
         id="path63" /><path
         style="fill:#ffffff;fill-opacity:1"
         d="m 18.447979,364.12572 c 0,-1.40729 3.49225,-14.61277 7.50819,-28.39122 0.72138,-2.475 2.95908,-10.575 4.97268,-18 2.0136,-7.425 4.2636,-15.525 5,-18 0.7364,-2.475 2.98519,-10.575 4.99731,-18 3.73973,-13.8001 10.45871,-37.76839 18.08114,-64.5 2.35246,-8.25 6.83374,-24.225 9.95841,-35.5 3.12466,-11.275 7.70849,-27.475 10.18628,-36 2.4778,-8.525 4.9292,-16.9625 5.44754,-18.75 l 0.94246,-3.25 h 57.927301 57.92732 l 1.61998,3.1327 c 1.86927,3.61476 0.90893,4.82578 -3.84764,4.85199 l -2.77903,0.0153 0.27903,13.25 0.27902,13.25 12.25,0.28078 c 6.7375,0.15443 12.24822,0.60443 12.24604,1 -0.006,1.14066 -5.86594,32.04197 -7.43694,39.21922 -0.78252,3.575 -2.16621,10.55 -3.07486,15.5 -0.90865,4.95 -2.26816,12.15 -3.02112,16 -0.75296,3.85 -2.31863,12.175 -3.47927,18.5 -1.16063,6.325 -2.76805,14.33727 -3.57205,17.80504 -0.80399,3.46777 -1.19899,6.73027 -0.87778,7.25 0.32121,0.51973 3.25746,0.94496 6.525,0.94496 3.26754,0 5.94098,0.24502 5.94098,0.54448 0,0.29947 -0.66259,3.33697 -1.47243,6.75 -0.80984,3.41304 -3.28303,15.50151 -5.49599,26.86327 -2.21295,11.36177 -4.2985,21.37427 -4.63455,22.25 -0.54404,1.41773 1.24662,1.59225 16.3377,1.59225 h 16.9487 l 1.10827,-3.75 c 0.60955,-2.0625 3.15782,-14.1 5.66282,-26.75 2.50501,-12.65 4.78047,-23.99013 5.05659,-25.20029 0.43498,-1.90637 1.26929,-2.24033 6.24547,-2.5 l 5.74342,-0.29971 8.06184,-40.5 c 4.43401,-22.275 9.57518,-48.2625 11.42481,-57.75 l 3.36297,-17.25 6.07519,-0.011 c 3.34136,-0.006 7.73714,-0.28578 9.76841,-0.62162 3.43892,-0.56858 3.76267,-0.92933 4.7018,-5.239 0.55472,-2.5456 1.96824,-7.32837 3.14116,-10.62837 3.42516,-9.63668 3.58622,-11.5 0.99399,-11.5 -1.20826,0 -2.0324,-0.3375 -1.83141,-0.75 0.20098,-0.4125 0.98763,-1.99172 1.74812,-3.50939 l 1.3827,-2.75938 63.47082,0.0416 63.47081,0.0417 -0.53177,17.21774 c -0.29248,9.46976 -1.00048,19.46774 -1.57335,22.21774 -0.57287,2.75 -1.77334,9.725 -2.6677,15.5 -3.84591,24.83331 -7.93129,42.0466 -13.76564,58 -24.23292,66.26227 -75.79501,110.27591 -145.23275,123.97134 -24.97719,4.92633 -27.8916,5.02866 -143.22014,5.02866 -98.835991,0 -108.279851,-0.14031 -108.279851,-1.60878 z"
         id="path49" /></g></g></svg>
