<?xml version="1.0" encoding="UTF-8" standalone="no"?>
<!-- Created with Inkscape (http://www.inkscape.org/) -->

<svg
   version="1.1"
   id="svg1"
   width="1263"
   height="391"
   viewBox="0 0 1263 391"
   sodipodi:docname="logonegativo.png"
   xml:space="preserve"
   inkscape:export-filename="logonegativo.png"
   inkscape:export-xdpi="96"
   inkscape:export-ydpi="96"
   xmlns:inkscape="http://www.inkscape.org/namespaces/inkscape"
   xmlns:sodipodi="http://sodipodi.sourceforge.net/DTD/sodipodi-0.dtd"
   xmlns="http://www.w3.org/2000/svg"
   xmlns:svg="http://www.w3.org/2000/svg"><defs
     id="defs1" /><sodipodi:namedview
     id="namedview1"
     pagecolor="#ffffff"
     bordercolor="#000000"
     borderopacity="0.25"
     inkscape:showpageshadow="2"
     inkscape:pageopacity="0.0"
     inkscape:pagecheckerboard="true"
     inkscape:deskcolor="#d1d1d1"
     inkscape:zoom="0.48680075"
     inkscape:cx="934.67399"
     inkscape:cy="346.13751"
     inkscape:window-width="1886"
     inkscape:window-height="976"
     inkscape:window-x="15"
     inkscape:window-y="65"
     inkscape:window-maximized="1"
     inkscape:current-layer="g1"><inkscape:page
       x="0"
       y="0"
       width="1263"
       height="391"
       id="page2"
       margin="0"
       bleed="0" /></sodipodi:namedview><g
     inkscape:groupmode="layer"
     inkscape:label="Image"
     id="g1"><g
       id="g216"
       style="fill:#ffffff;fill-opacity:1"
       transform="matrix(1.1281271,0,0,1.1281271,23.837468,537.54108)"><path
         id="path195"
         style="fill:#ffffff;fill-opacity:1"
         d="m 1037.9174,-191.83984 -5.25,0.0508 -6.75,9.44922 c -6.4299,9.00063 -6.6304,9.44922 -4.2187,9.44922 1.3926,0 2.7909,-0.67501 3.1074,-1.5 0.4032,-1.05054 2.0418,-1.5 5.4687,-1.5 3.6826,0 4.8926,0.37103 4.8926,1.5 0,1.14598 1.2603,1.5 5.3379,1.5 h 5.3359 l -1.3144,-8.75 c -0.7236,-4.81251 -1.3259,-9.08751 -1.3379,-9.5 -0.012,-0.41251 -2.384,-0.72702 -5.2715,-0.69922 z m -4.2754,5.16992 c 0.01,-0.001 0.011,-8.3e-4 0.016,0 v 0 0.002 0 0.002 0 0.002 0.002 0.002 c 0.1166,0.14868 0.4727,1.95704 0.791,4.01954 0.5741,3.72069 0.5514,3.75 -2.873,3.75 h -3.4512 l 2.6621,-4.01954 c 1.3833,-2.09026 2.6127,-3.71418 2.8418,-3.75976 z" /><path
         id="path202"
         style="fill:#ffffff;fill-opacity:1"
         d="m 769.91346,-404.89062 -6.44141,3.16992 c -6.54909,3.22411 -11.46486,7.97634 -14.47461,13.99218 -2.08515,4.16778 -16.9369,73.04999 -17.52539,81.28321 -0.52201,7.30307 1.56745,11.38547 7.40234,14.46484 3.66121,1.93221 5.75399,2.00222 60.45508,2.04492 l 56.66211,0.0449 4.5293,-13.54883 c 3.8314,-11.46172 4.25535,-13.46158 2.75195,-12.98438 -0.9775,0.31025 -6.6886,1.72233 -12.6914,3.13867 -9.06084,2.13786 -14.2271,2.66594 -30.41797,3.10743 -22.23433,0.60629 -29.7478,-0.37474 -33.7793,-4.40625 -2.34254,-2.34253 -2.45898,-2.95384 -1.95312,-10.33399 0.2957,-4.31427 0.8334,-8.32263 1.19531,-8.9082 0.4483,-0.72537 13.94814,-1.06445 42.35742,-1.06445 h 41.69922 l 5.38281,-24.99024 c 6.8851,-31.9632 6.59093,-36.30799 -2.88867,-42.75976 l -3.30664,-2.25 h -49.47852 z m 46.8789,21.00585 c 11.20573,-0.007 14.60571,0.62883 17.42969,3.25977 1.88115,1.75255 2.11488,2.76815 1.64063,7.13867 -0.30412,2.80255 -1.0724,7.45821 -1.70704,10.34571 l -1.15429,5.25 h -21.02344 c -16.40551,-10e-6 -20.92077,-0.27461 -20.55078,-1.25 0.26079,-0.6875 1.29825,-5.07131 2.30469,-9.74219 2.76947,-12.85316 6.0563,-14.99156 23.06054,-15.00196 z" /><path
         id="path193"
         style="fill:#ffffff;fill-opacity:1"
         d="m 805.27088,-281.67188 c -37.29654,-0.24763 -42.9979,-0.0827 -47.38672,1.375 -6.71151,2.22921 -11.87567,7.13994 -15.12695,14.38477 -2.99586,6.67567 -3.35461,8.24978 -10.60352,46.52149 -6.19832,32.72498 -6.16611,35.58388 0.48242,42.23242 l 4.26758,4.26758 44.38281,-0.0215 c 40.82744,-0.0202 44.70119,-0.16884 48.38086,-1.84961 5.49587,-2.51036 11.82542,-9.70912 14.26172,-16.2207 2.57079,-6.87108 13.3453,-62.07527 13.9375,-71.4082 0.3753,-5.91334 0.0847,-7.69856 -1.87695,-11.5 -3.9386,-7.63199 -2.84038,-7.46335 -50.71875,-7.78126 z m -5.39844,20.78126 c 11.92137,0 13.29492,0.55372 13.29492,5.35546 0,4.01367 -9.88799,55.56851 -11.08789,57.81055 -0.52653,0.98382 -1.81791,2.24795 -2.86914,2.81055 -1.05124,0.56261 -7.1251,1.02344 -13.49805,1.02344 -15.78416,0 -15.19981,1.98826 -9.06445,-30.76954 5.92962,-31.65927 5.9363,-31.67912 9.45899,-34.1875 2.46733,-1.75689 4.3963,-2.04296 13.76562,-2.04296 z" /><path
         id="path185"
         style="fill:#ffffff;fill-opacity:1"
         d="m 622.24549,-283.01562 0.55273,4.8125 c 0.41595,3.6263 -1.6802,16.48218 -8.50586,52.14453 -4.9825,26.03228 -9.74884,48.71262 -10.59179,50.40234 -0.84291,1.68966 -1.53315,3.24463 -1.53321,3.45508 3.2e-4,0.21038 21.93769,0.25305 48.75,0.0957 48.08347,-0.2822 48.80523,-0.3162 52.87305,-2.49219 4.98015,-2.66401 8.98643,-7.21533 10.18555,-11.57422 0.48703,-1.77041 2.16174,-10.0965 3.7207,-18.50195 2.06076,-11.11097 2.57791,-16.00739 1.89844,-17.93945 -0.72656,-2.06594 -0.43421,-3.67188 1.31054,-7.2168 1.23437,-2.50795 3.58744,-11.22108 5.23047,-19.36133 3.34212,-16.55831 3.03972,-22.15783 -1.48828,-27.53906 -4.47958,-5.32367 -6.10833,-5.49481 -56.1914,-5.90625 z m 40.47656,13.625 9.47266,0.0684 c 15.41809,0.11013 17.09083,2.15434 14.02734,17.15039 -2.13118,10.43228 -4.56163,14.24645 -10.77344,16.9043 -4.20415,1.79884 -19.30441,1.89857 -19.22461,0.12696 0.031,-0.6875 1.50567,-8.67502 3.27735,-17.75 z m 0.45703,50.5 c 8.97205,0 10.13058,0.21786 12.6543,2.38867 l 2.7793,2.39062 -1.17774,6.85938 c -2.18411,12.72073 -3.42055,17.32811 -5.25781,19.59961 -1.67584,2.07192 -2.8011,2.28976 -13.41992,2.59765 -10.7683,0.31221 -11.58985,0.20322 -11.58985,-1.53125 0,-1.92479 4.68896,-27.43856 5.61524,-30.55468 0.44987,-1.51343 1.85479,-1.75 10.39648,-1.75 z" /><path
         id="path191"
         style="fill:#ffffff;fill-opacity:1"
         d="m 495.06775,-281.89062 0.62696,5.75 c 0.51913,4.76132 -0.85537,13.54991 -7.99024,51.11718 -7.57057,39.86133 -8.92886,45.77853 -11.19531,48.75 l -2.58008,3.38282 h 22.61914 c 13.36245,0 22.61914,-0.38324 22.61914,-0.93555 0,-0.51419 -0.4052,-2.00027 -0.90039,-3.30274 -0.56849,-1.49523 -0.46227,-4.55953 0.28907,-8.31445 l 1.18945,-5.94726 13.24414,-0.2793 13.24414,-0.2793 2.8457,6.2793 2.84571,6.2793 -1.96094,3.25 -1.96094,3.25 h 22.57617 22.57617 l -5.70898,-11.47071 -5.71094,-11.4707 2.55469,-2.7793 c 4.63593,-5.04433 6.84669,-8.99786 8.34375,-14.92578 2.44877,-9.69645 10.5332,-53.00764 10.5332,-56.42969 0,-3.58183 -3.22616,-9.44044 -6.02343,-10.9375 -1.14377,-0.61212 -20.89106,-0.98632 -51.96094,-0.98632 z m 52.62696,15.43554 c 2.0003,-0.0676 3.71915,0.32666 6.57422,1.27344 4.45528,1.47742 5.44948,2.23362 5.69335,4.32422 0.4552,3.90213 -7.57145,44.97481 -9.30664,47.62304 -1.46276,2.23247 -2.07777,2.34376 -12.99218,2.34376 h -11.45899 l -0.66015,-2.63086 c -0.3952,-1.57459 1.02928,-11.50984 3.54882,-24.75 4.78584,-25.14954 5.04305,-25.64148 14.39063,-27.58204 1.70944,-0.35487 3.01075,-0.56098 4.21094,-0.60156 z" /><path
         id="path199"
         style="fill:#ffffff;fill-opacity:1"
         d="m 478.48572,-404.89062 -5.93359,2.96484 c -7.09682,3.54633 -11.30396,7.45966 -14.24805,13.25 -2.76457,5.43728 -18.13672,76.75223 -18.13672,84.14062 0,6.23668 2.07391,9.577 7.83985,12.62305 3.4903,1.84388 6.28664,1.93446 60.36718,1.97656 l 56.70704,0.0449 4.11523,-13.09376 c 2.26357,-7.20174 3.97039,-13.22632 3.79297,-13.38671 -0.17742,-0.16039 -4.48466,0.76497 -9.57227,2.05664 -14.25591,3.61937 -24.78763,4.65202 -43.5332,4.26562 -14.73475,-0.30372 -17.79343,-0.64157 -21.2168,-2.34765 -5.48407,-2.73305 -6.94229,-7.12659 -5.23242,-15.76758 l 1.23242,-6.22656 41.9375,-0.5 41.93555,-0.5 5.27734,-24 c 2.90257,-13.2 5.29486,-25.81811 5.31446,-28.03907 0.0469,-5.31552 -3.60377,-12.37245 -7.86328,-15.20312 l -3.39844,-2.25781 h -49.69141 z m 48.18164,21.00781 c 7.55389,-0.003 10.83849,0.42338 13.42578,1.74414 5.40503,2.75915 5.69276,3.91311 3.66602,14.67383 l -1.80469,9.57422 h -20.89258 c -11.49176,0 -20.89453,-0.19037 -20.89453,-0.42383 0,-0.23346 0.95743,-4.58775 2.12891,-9.67578 3.20965,-13.9402 6.19386,-15.88558 24.37109,-15.89258 z" /><path
         style="fill:#ffffff;fill-opacity:1"
         d="m 187.41673,-458.14072 c 0.31732,-0.95288 7.23032,-1.31307 29.08333,-1.51533 25.06084,-0.23196 28.66706,-0.0747 28.66706,1.25 0,1.31904 -3.76733,1.51533 -29.08333,1.51533 -22.82201,0 -28.99371,-0.26911 -28.66706,-1.25 z"
         id="path215" /><path
         style="fill:#ffffff;fill-opacity:1"
         d="m 155.34757,-446.14072 0.31955,-2.25 60.75,-0.25774 60.75,-0.25775 v 2.50775 2.50774 h -61.06955 -61.06955 z"
         id="path214" /><path
         style="fill:#ffffff;fill-opacity:1"
         d="m 255.56784,-406.08271 c -3.9328,-7.6052 -15.34796,-17.55324 -29.20021,-25.44729 l -7.65208,-4.36072 11.47579,0.004 c 9.63968,0.003 11.99094,0.31784 14.69554,1.96691 4.40137,2.68363 9.04699,9.37362 10.7395,15.46555 1.64312,5.91418 2.98249,15.5638 2.16026,15.5638 -0.31248,0 -1.31094,-1.43639 -2.2188,-3.19199 z"
         id="path213" /><path
         style="fill:#ffffff;fill-opacity:1"
         d="m 174.80169,-371.14072 c 1.08219,-6.01669 4.2751,-18.20537 6.32796,-24.15655 5.00567,-14.51121 0.67045,-26.57913 -13.28912,-36.99285 l -4.8266,-3.6006 18.3266,0.005 18.32659,0.005 12.31464,5.97525 c 20.47666,9.93558 32.03542,18.92066 37.09258,28.83351 2.57893,5.05513 2.58874,7.78628 0.0776,21.60129 -1.09165,6.00568 -1.98482,11.06818 -1.98482,11.25 0,0.18182 -16.41375,0.33058 -36.475,0.33058 h -36.475 z"
         id="path212" /><path
         style="fill:#ffffff;fill-opacity:1"
         d="m 339.66238,-382.46832 2.13197,-15.57761 -4.56361,-2.31431 c -5.8428,-2.96301 -7.65091,-5.10144 -8.38821,-9.92065 -1.21134,-7.91771 -8.89027,-15.88984 -21.35102,-22.16626 l -6.82439,-3.4374 23.25,-0.003 23.25,-0.003 v 5.81634 c 0,13.49717 3.84659,24.46 11.61351,33.09868 l 4.52294,5.0306 -2.13228,10.77719 c -1.17275,5.92746 -2.35878,11.56469 -2.63561,12.52719 -0.43721,1.52013 -1.84988,1.75 -10.7543,1.75 h -10.25096 z"
         id="path211" /><path
         style="fill:#ffffff;fill-opacity:1"
         d="m 260.56748,-368.62768 c 3.17816,-10.31127 3.99964,-16.85864 4.04792,-32.26304 0.0574,-18.31258 -0.99548,-23.31394 -6.51093,-30.9278 l -2.94989,-4.0722 h 9.99431 c 8.42018,0 11.53186,0.48939 19.75628,3.10713 17.80039,5.66568 30.29512,12.61033 34.17904,18.99693 1.018,1.67396 2.13849,4.84203 2.48998,7.04015 0.83766,5.23839 2.63323,7.81631 7.55157,10.84186 2.22275,1.36734 4.00782,3.16734 3.96683,4 -0.041,0.83266 -0.83512,6.68893 -1.76473,13.01393 l -1.6902,11.5 -34.80679,0.26304 c -32.85411,0.24829 -34.77631,0.16413 -34.26339,-1.5 z"
         id="path210" /><path
         style="fill:#ffffff;fill-opacity:1"
         d="m 105.65728,-370.64072 c 0.28258,-2.0625 0.97453,-8.22414 1.53768,-13.69253 0.56314,-5.46839 1.26757,-10.19339 1.56539,-10.5 0.29782,-0.30661 4.65982,-3.70747 9.69333,-7.55747 l 9.15184,-7 -0.30189,-5 c -0.32363,-5.3599 -3.36477,-15.56909 -5.73424,-19.25 l -1.44837,-2.25 h 12.20002 c 12.17803,0 12.21483,0.007 20.41821,3.97784 9.2252,4.46525 18.3075,12.14137 20.94712,17.70396 2.47816,5.22234 2.18336,9.35071 -1.51332,21.19269 -1.78122,5.70597 -3.7769,13.58097 -4.43484,17.5 l -1.19625,7.12551 -6.43742,0.63312 c -3.54058,0.34821 -17.35523,0.68571 -30.69923,0.75 l -24.26182,0.11688 z"
         id="path209" /><path
         style="fill:#ffffff;fill-opacity:1"
         d="m 59.530499,-368.61886 c 0.28162,-0.97452 1.30214,-5.9893 2.26784,-11.14394 1.84336,-9.8394 3.10147,-12.12184 6.69021,-12.1373 3.52651,-0.0152 12.07907,-5.50345 16.64879,-10.68369 5.92502,-6.71661 11.09344,-17.42614 14.04619,-29.10529 l 1.086731,-4.29837 5.69089,0.29837 5.6909,0.29836 3.27009,6.5 c 1.79855,3.575 3.54232,8.57703 3.87504,11.11561 l 0.60495,4.61562 -8.3675,6.28789 c -4.60213,3.45834 -8.80592,6.67973 -9.34176,7.15864 -0.53584,0.47891 -1.66084,7.94734 -2.500001,16.5965 l -1.52575,15.72574 -19.32432,0.27186 c -18.09198,0.25451 -19.29167,0.15886 -18.8123,-1.5 z"
         id="path208" /><path
         style="fill:#ffffff;fill-opacity:1"
         d="m 159.91663,-353.64072 c -0.27398,-3.1625 -0.39966,-5.86755 -0.27927,-6.01122 0.12038,-0.14367 18.67416,-0.14367 41.23063,0 l 41.01176,0.26122 -2.48346,5.75 -2.48346,5.75 h -38.24902 -38.24902 z"
         id="path207" /><path
         style="fill:#ffffff;fill-opacity:1"
         d="m 156.16712,-329.32429 c 0,-3.00235 0.34538,-3.47332 2.75,-3.75 2.15997,-0.24854 2.8179,-0.90646 3.06643,-3.06643 l 0.31642,-2.75 h 34.40858 34.40857 l -0.6,3 c -0.51607,2.5804 -0.30277,3 1.525,3 2.37696,0 2.56303,0.71772 1.14976,4.4349 l -0.97525,2.5651 h -38.02475 -38.02476 z"
         id="path206" /><path
         style="fill:#ffffff;fill-opacity:1"
         d="m 364.03408,-294.64072 c 2.69967,-3.4188 3.90291,-8.06665 13.6239,-52.62602 5.8931,-27.01298 10.4066,-49.89639 10.09019,-51.1571 -0.31489,-1.25459 -0.84758,-2.99788 -1.18377,-3.87398 -0.55083,-1.43545 2.36266,-1.5929 29.47513,-1.5929 h 30.08638 l -2.92217,4.25 c -1.99247,2.89784 -3.56773,7.27248 -4.95126,13.75 -1.116,5.225 -3.85234,17.825 -6.08074,28 -13.19733,60.25947 -13.16638,60.0972 -12.06455,63.25791 0.58296,1.6723 1.05993,3.19839 1.05993,3.39132 0,0.19292 -13.5212,0.35077 -30.04712,0.35077 h -30.04712 z"
         id="path205" /><path
         style="fill:#ffffff;fill-opacity:1"
         d="m 879.50921,-292.45764 c -2.1993,-2.19934 -2.5054,-3.20804 -2.051,-6.75911 0.2938,-2.29568 5.3004,-25.8994 11.1257,-52.45272 10.08075,-45.95059 10.51345,-48.39792 8.97235,-50.75 l -1.6193,-2.47125 h 29.8022 29.8021 l -2.791,2.91318 c -1.9089,1.99241 -3.2182,4.91604 -4.1426,9.25 -0.7434,3.48525 -4.5139,20.91419 -8.379,38.73096 -4.3555,20.0774 -6.7883,33.38493 -6.3987,35 2.7018,11.19853 17.0576,14.25548 43.2016,9.19944 6.2505,-1.20879 11.5384,-2.02413 11.7506,-1.81185 0.2123,0.21228 -0.6631,5.07323 -1.9455,10.80212 l -2.3314,10.41615 -51.2054,0.2591 -51.20545,0.2591 z"
         id="path204" /><path
         style="fill:#ffffff;fill-opacity:1"
         d="m 586.60921,-293.14072 c 0.29299,-1.7875 1.25769,-9.55 2.14378,-17.25 0.88609,-7.7 1.69421,-14.08995 1.79582,-14.19988 0.10161,-0.10994 2.20659,1.1153 4.67773,2.72275 l 4.49297,2.92264 36.34126,-0.63615 36.34127,-0.63614 2.88254,-2.4255 c 3.53664,-2.97589 4.05425,-8.55027 0.94829,-10.21253 -1.22234,-0.65418 -14.74853,-1.0513 -36.75,-1.07896 -30.15875,-0.0379 -35.47178,-0.272 -39.72028,-1.75 -8.12113,-2.82524 -8.09052,-2.40229 -2.16954,-29.97845 5.18948,-24.1693 5.22824,-24.28958 9.14282,-28.36735 2.16219,-2.25232 7.06856,-5.61732 10.90304,-7.47778 l 6.97179,-3.38265 h 46.03481 c 26.94783,0 47.44599,0.40472 49.43834,0.97612 10.55977,3.0285 15.63428,17.30097 11.4515,32.20828 l -1.63178,5.8156 h -23.4034 c -22.82839,0 -23.37798,-0.0475 -22.36823,-1.93426 1.69803,-3.17279 1.20106,-9.02405 -1.03291,-12.16137 l -2.06809,-2.90437 h -11.46709 c -15.80949,0 -17.24369,1.03391 -20.44423,14.73808 -2.34194,10.02778 -1.98708,10.38953 11.15597,11.37241 5.71534,0.42741 18.46201,0.8024 28.32593,0.83331 20.70258,0.0649 27.60585,1.39974 32.23239,6.23265 2.4608,2.57056 2.82242,3.70647 2.7511,8.64157 -0.0972,6.72867 -5.43569,28.33639 -8.4706,34.28531 -1.17307,2.29941 -4.14841,6.33554 -6.61187,8.96917 -7.5963,8.12106 -5.93454,7.9275 -68.05887,7.9275 H 586.0765 Z"
         id="path201" /><path
         style="fill:#ffffff;fill-opacity:1"
         d="m 997.16716,-250.9483 c 0,-7.01283 0.051,-7.15745 2.25,-6.37225 3.64194,1.30046 46.70464,1.7124 48.21224,0.4612 0.7132,-0.59192 1.5542,-2.36363 1.8689,-3.93713 0.3147,-1.5735 0.84,-3.92591 1.1673,-5.22757 l 0.5951,-2.36667 -21.9926,0.30371 c -24.0026,0.33147 -27.4328,-0.29352 -28.6702,-5.22371 -0.329,-1.31099 1.0639,-9.85956 3.0955,-18.99682 2.9748,-13.37946 3.4539,-16.90224 2.4613,-18.09818 -1.0815,-1.30312 0.7878,-1.485 15.2624,-1.485 h 16.4947 l -2.3462,10.75 c -4.0481,18.54703 -4.6598,22.12648 -4.0521,23.71018 0.9196,2.39652 16.9907,2.20277 19.4277,-0.23421 1.1542,-1.15424 2.9648,-7.39838 5.1822,-17.87241 l 3.4081,-16.09837 6.5679,-0.62049 c 3.6123,-0.34126 11.6367,-0.62368 17.832,-0.62759 l 11.2641,-0.007 -2.434,3.75 c -1.7748,2.73428 -3.9842,10.79234 -8.1568,29.75 -3.1474,14.3 -6.3708,26.9904 -7.1629,28.2009 -0.7922,1.21049 -3.5405,3.23549 -6.1075,4.5 -4.5561,2.24441 -5.4938,2.30646 -39.4171,2.60816 l -34.75004,0.30905 z"
         id="path198" /><path
         style="fill:#ffffff;fill-opacity:1"
         d="m 162.67459,-182.09842 c 0.66545,-3.46076 2.48192,-12.9298 4.03659,-21.0423 l 2.82669,-14.75 h 6.31463 c 5.36528,0 6.30751,0.2631 6.26732,1.75 -0.026,0.9625 -1.72275,10.3 -3.77052,20.75 l -3.72323,19 -6.58069,0.2923 -6.5807,0.2923 z"
         id="path197" /><path
         style="fill:#ffffff;fill-opacity:1"
         d="m 1050.1653,-174.64072 c 0,-2.6804 0.1433,-2.75 5.7308,-2.75 4.6625,0 5.7966,-0.32668 6.0752,-1.75 0.2933,-1.49831 -0.4591,-1.75 -5.2308,-1.75 h -5.5733 v -4.88499 c 0,-6.20416 2.4449,-8.11501 10.383,-8.11501 7.5277,0 8.617,0.58237 8.617,4.60699 0,3.21106 -0.1877,3.39301 -3.5,3.39301 -2.1802,0 -3.4058,-0.44896 -3.25,-1.19061 0.3585,-1.70765 -3.3458,-2.26589 -4.3649,-0.65778 -1.9194,3.02879 -0.9366,3.84839 4.6149,3.84839 5.4706,0 5.5,0.0164 5.5,3.06574 0,3.2222 -1.5427,6.92897 -3.3997,8.16895 -0.6052,0.40408 -4.3628,0.74158 -8.3503,0.75 -7.2457,0.0153 -7.25,0.0137 -7.2519,-2.73469 z"
         id="path190" /><path
         style="fill:#ffffff;fill-opacity:1"
         d="m 998.16526,-174.64072 c 0,-2.6804 0.1433,-2.75 5.73084,-2.75 4.6625,0 5.7966,-0.32668 6.0752,-1.75 0.2933,-1.49831 -0.4591,-1.75 -5.2308,-1.75 h -5.57334 v -4.88499 c 0,-6.20416 2.44494,-8.11501 10.38304,-8.11501 7.5277,0 8.617,0.58237 8.617,4.60699 0,3.21106 -0.1877,3.39301 -3.5,3.39301 -2.1802,0 -3.4058,-0.44896 -3.25,-1.19061 0.3585,-1.70765 -3.3458,-2.26589 -4.3649,-0.65778 -1.9194,3.02879 -0.9366,3.84839 4.6149,3.84839 5.4706,0 5.5,0.0164 5.5,3.06574 0,3.2222 -1.5427,6.92897 -3.3997,8.16895 -0.6052,0.40408 -4.3628,0.74158 -8.3503,0.75 -7.24574,0.0153 -7.25004,0.0137 -7.25194,-2.73469 z"
         id="path189" /><path
         style="fill:#ffffff;fill-opacity:1"
         d="m 856.17711,-175.14072 c 0.015,-4.81387 2.7962,-28.88953 3.4083,-29.50158 0.29,-0.29002 2.0193,0.61073 3.843,2.00168 l 3.3156,2.529 30.40885,-0.54151 c 30.0643,-0.53536 30.4351,-0.5676 32.7116,-2.84409 2.8994,-2.89939 3.0961,-7.89843 0.3683,-9.35831 -1.2019,-0.64327 -12.6546,-1.0373 -30.25,-1.04076 -16.58755,-0.003 -29.87285,-0.43801 -32.07515,-1.04962 -2.0987,-0.58283 -4.4834,-2.14905 -5.3984,-3.54549 -1.5504,-2.3662 -1.4025,-3.77694 2.7359,-26.09164 l 4.3749,-23.59018 4.1678,-4.28831 c 2.2922,-2.35857 6.4885,-5.46431 9.3249,-6.90165 l 5.1572,-2.61334 39.88395,0.2929 39.8841,0.2929 3.1906,3 c 6.4921,6.10415 8.5273,15.99294 5.8556,28.45078 l -1.0829,5.04922 h -19.37 -19.37 l 0.5885,-4.96861 c 0.4391,-3.70747 0.1674,-5.61114 -1.0702,-7.5 -1.597,-2.43739 -2.0412,-2.53139 -11.9613,-2.53139 -9.4772,0 -10.4769,0.18549 -12.4776,2.31519 -2.8473,3.03086 -6.0869,18.17148 -4.2757,19.98285 0.8279,0.82792 8.5772,1.40873 24.902,1.86639 24.2741,0.68052 29.0773,1.37799 33.512,4.86626 4.2677,3.35699 5.0176,7.51732 3.1781,17.63174 -4.6283,25.44904 -10.425,36.87902 -20.3893,40.20347 -2.3321,0.77809 -17.4786,1.1341 -48.25,1.1341 h -44.85065 z"
         id="path188" /><path
         style="fill:#ffffff;fill-opacity:1"
         d="m 370.16712,-173.25313 c -11.58406,-2.51646 -19,-7.93924 -19,-13.89343 0,-2.7163 2.47411,-16.10129 12.56953,-68.00138 3.74217,-19.23834 3.96313,-21.10337 2.90178,-24.49278 l -0.70457,-2.25 h 24.11663 c 13.26415,0 24.11663,0.30207 24.11663,0.67126 0,0.3692 -0.72596,1.47344 -1.61325,2.45389 -2.04252,2.25696 -16.50619,77.02765 -15.68983,81.10944 0.3085,1.54252 1.94496,3.96917 3.63657,5.39257 2.61395,2.19949 3.79182,2.51917 7.8465,2.12957 6.47138,-0.62182 12.48679,-4.71919 14.79773,-10.0794 2.56755,-5.9554 15.36342,-74.18774 14.69044,-78.33484 l -0.54241,-3.34249 h 23.85405 23.85405 l -1.92922,3.75 c -1.18093,2.29546 -5.03734,20.23478 -9.94236,46.25 -4.40723,23.375 -8.49959,43.72133 -9.09413,45.21405 -2.24803,5.64415 -15.32088,11.78062 -29.1905,13.7022 -10.5659,1.46386 -57.58889,1.26127 -64.67764,-0.27866 z"
         id="path184" /><path
         style="fill:#ffffff;fill-opacity:1"
         d="m 30.990899,-140.64034 -40.6762299,-0.27269 1.80659,-6.23884 c 0.99363,-3.43137 8.36250004,-28.96385 16.37527,-56.73885 8.0127799,-27.775 17.0547399,-59.05 20.0932599,-69.5 3.03852,-10.45 9.02395,-31.26113 13.30096,-46.24696 l 7.77637,-27.24696 51.176761,-0.003 51.17676,-0.003 1.4966,3 1.4966,3 h -3.42336 -3.42336 v 11.5 11.5 h 11.06739 c 10.07378,0 11.02024,0.15711 10.54219,1.75 -0.28886,0.9625 -4.61816,22.675 -9.62067,48.25 -5.00251,25.575 -9.32682,47.2875 -9.60958,48.25 -0.44614,1.51868 0.22183,1.75 5.05329,1.75 3.06206,0 5.56591,0.3375 5.5641,0.75 -0.002,0.4125 -2.02043,10.875 -4.48583,23.25 -2.46541,12.375 -4.48893,23.2875 -4.49672,24.25 -0.0128,1.58686 1.33758,1.75 14.48583,1.75 7.975,0 14.5,-0.12009 14.5,-0.26686 0,-0.76988 9.15173,-46.49848 9.60294,-47.98314 0.41961,-1.38071 1.65444,-1.75 5.85163,-1.75 h 5.31979 l 9.84833,-49.9645 9.84834,-49.9645 8.42823,-0.2855 8.42824,-0.2855 3.76367,-11.25 c 3.5268,-10.54194 3.64076,-11.25 1.81058,-11.25 -1.8482,0 -1.86978,-0.16114 -0.40175,-3 l 1.55136,-3 h 52.34932 c 28.79213,0 53.77593,0.28532 55.51956,0.63405 l 3.17024,0.63405 -0.60341,11.11595 c -2.7701,51.03103 -12.91562,87.24518 -33.23066,118.61595 -27.13691,41.90521 -72.7706,68.67902 -127.75641,74.95616 -8.40455,0.95946 -52.59508,1.03889 -163.676221,0.29422 z"
         id="path183" /></g></g></svg>
